<svg width="18" height="18" viewBox="0 0 18 18" fill="none" xmlns="http://www.w3.org/2000/svg">
<path d="M17 5.58711V1H12.4041" stroke="#FA0808" stroke-width="2" stroke-linecap="round" stroke-linejoin="round"/>
<path d="M11.6381 6.35163L17 1" stroke="#FA0808" stroke-width="2" stroke-linecap="round" stroke-linejoin="round"/>
<path d="M16.234 13.1712V15.4648C16.2349 15.6777 16.1912 15.8884 16.1057 16.0835C16.0203 16.2786 15.8949 16.4537 15.7377 16.5977C15.5805 16.7416 15.3949 16.8512 15.1928 16.9194C14.9908 16.9876 14.7766 17.013 14.5642 16.9938C12.2071 16.7382 9.94297 15.9343 7.95371 14.6467C6.10295 13.4729 4.53384 11.9068 3.35779 10.0596C2.06326 8.06515 1.25765 5.79437 1.00622 3.43125C0.987076 3.21984 1.01225 3.00676 1.08014 2.80559C1.14802 2.60441 1.25713 2.41955 1.40052 2.26278C1.54391 2.106 1.71843 1.98074 1.91298 1.89497C2.10753 1.8092 2.31785 1.7648 2.53053 1.7646H4.82849C5.20022 1.76095 5.56061 1.89234 5.84247 2.13427C6.12433 2.3762 6.30843 2.71218 6.36046 3.07957C6.45745 3.81356 6.63732 4.53424 6.89665 5.22787C6.99971 5.50151 7.02201 5.7989 6.96092 6.0848C6.89983 6.3707 6.7579 6.63314 6.55195 6.841L5.57915 7.81194C6.66957 9.72594 8.25739 11.3107 10.1751 12.399L11.1479 11.4281C11.3561 11.2226 11.6191 11.0809 11.9055 11.0199C12.192 10.959 12.4899 10.9812 12.7641 11.0841C13.4591 11.3429 14.1811 11.5224 14.9165 11.6192C15.2886 11.6716 15.6284 11.8587 15.8713 12.1448C16.1143 12.431 16.2433 12.7963 16.234 13.1712Z" stroke="#FA0808" stroke-width="2" stroke-linecap="round" stroke-linejoin="round"/>
</svg>
